<svg xmlns="http://www.w3.org/2000/svg" viewBox="0 0 2850 1800" width="2850" height="1800"><g id="Layer_1_1_"><linearGradient id="SVGID_1_" gradientUnits="userSpaceOnUse" x1="0" y1="900" x2="2850" y2="900"><stop offset="0" stop-color="#ffd2b4"/><stop offset=".998" stop-color="#fff9d4"/></linearGradient><path fill="url(#SVGID_1_)" d="M0 0h2850v1800H0z"/><path opacity=".52" fill="#F8FEFF" d="M2798.198 643.157c-5.694 1.763-28.47-4.408-39.859-22.921-11.388-18.513-47.831-37.027-76.302-43.354-28.471-6.327-66.053 6.327-78.58 26.604-12.527 20.277 9.111 51.132-3.417 47.606-12.527-3.526-25.071-25.592-58.08-12.342-30.749 12.342-7.971 33.501-17.083 37.027-9.11 3.527-46.49-15.747-71.746-13.224-35.304 3.527-50.49 28.463-45.935 39.042s-10.19 22.77-26.134 14.836c-15.944-7.934-16.76-14.206-34.982-14.206-18.221 0-30.179 14.546-26.193 23.803 1.836 4.265-14.236 7.053-21.638 2.645-3.83-2.281-12.527-10.579-28.471-9.698s-13.666 17.632-21.638 15.869c-7.972-1.763-22.697-.642-25.054 6.171-7.972 23.038 58.08 17.632 77.441 17.69 19.36.059 124.133-7.992 145.771-5.348s251.682 14.105 291.541 9.697c13.455-1.488 58.459-1.971 112.16-1.958V612.503c-37.738-.604-46.347 28.965-51.801 30.654zM1789.599 735.526s-270.019-3.306-304.014 0c-33.995 3.306-230.196-5.29-248.651-7.273-18.454-1.984-107.813 4.055-124.325 4.011s-72.847 4.011-66.048-13.268c2.011-5.11 14.569-5.951 21.369-4.628 6.799 1.322 4.856-11.24 18.454-11.901s21.016 5.562 24.282 7.273c6.313 3.306 20.021 1.215 18.455-1.984-3.399-6.943 6.799-17.852 22.34-17.852s16.237 4.704 29.835 10.655c13.598 5.951 26.174-3.193 22.289-11.127-3.885-7.934 9.067-26.636 39.177-29.281 21.54-1.892 53.421 12.563 61.191 9.918 7.77-2.645-11.656-18.514 14.569-27.77 28.152-9.937 38.851 6.612 49.536 9.257 10.684 2.645-7.771-20.497 2.914-35.705 10.685-15.208 42.737-24.698 67.019-19.953 24.282 4.745 55.364 18.63 65.077 32.515 9.713 13.885 29.139 18.514 33.995 17.191 4.857-1.322 12.627-25.456 48.565-22.811s40.794 16.861 40.794 16.861 3.399-14.877 28.653-16.861 47.094 2.047 65.562 11.571c16.027 8.265 18.455 22.481 29.139 19.836 10.684-2.645 11.713-13.073 28.168-14.216 23.796-1.653 39.823 14.28 36.909 25.488-2.914 11.208 8.741-.693 17.483-3.999s33.995 4.628 26.225 17.191c-7.77 12.563 8.966 16.089 17.483 11.901 17.483-8.595 42.251-5.62 57.306 12.563 11.846 14.308 33.995 6.612 33.995 6.612s37.88-5.289 49.536 9.918c11.655 15.208 0 16.618 0 16.618l-227.282-.75zM2381.797 326.081s-396.543-6.52-446.468 0c-49.924 6.52-338.06-10.433-365.162-14.345-27.102-3.912-158.332 7.997-182.581 7.911-24.249-.087-106.981 7.911-96.996-26.168 2.953-10.077 21.396-11.737 31.381-9.128 9.985 2.608 7.132-22.169 27.102-23.474 19.97-1.304 30.864 10.971 35.66 14.345 9.272 6.52 29.402 2.396 27.102-3.912-4.993-13.693 9.985-35.21 32.807-35.21 22.823 0 23.846 9.277 43.815 21.014 19.97 11.737 38.438-6.297 32.733-21.946-5.706-15.649 13.316-52.535 57.535-57.751 31.634-3.732 78.453 24.777 89.864 19.561 11.411-5.216-17.117-36.514 21.396-54.771 41.344-19.599 57.057 13.041 72.747 18.257 15.691 5.216-11.411-40.426 4.279-70.42 15.691-29.994 62.762-48.712 98.423-39.353 35.66 9.359 81.305 36.744 95.57 64.13 14.264 27.385 42.792 36.514 49.925 33.906 7.132-2.608 18.543-50.207 71.321-44.991 52.777 5.216 59.909 33.254 59.909 33.254s4.992-29.342 42.079-33.254c37.087-3.912 69.162 4.037 96.283 22.821 23.536 16.301 27.102 44.338 42.792 39.122 15.691-5.216 17.2-25.783 41.366-28.038 34.947-3.26 58.483 28.164 54.204 50.27-4.279 22.106 12.838-1.367 25.675-7.887 12.838-6.52 49.925 9.128 38.513 33.906-11.411 24.777 13.167 31.732 25.676 23.474 25.675-16.953 62.049-11.085 84.158 24.777 17.397 28.219 49.924 13.041 49.924 13.041s55.63-10.433 72.747 19.561c17.117 29.994 0 32.774 0 32.774l-333.779-1.476zM923.294 388.546c-15.852-27.777-67.37-18.115-67.37-18.115s-30.123 14.056-46.235-12.077c-20.475-33.212-54.161-38.646-77.938-22.946-11.583 7.648-34.345 1.208-23.778-21.738 10.568-22.946-23.778-37.439-35.667-31.4-11.889 6.039-27.741 27.777-23.778 7.305 3.963-20.472-17.833-49.574-50.197-46.555-22.38 2.088-23.778 21.134-38.309 25.965-14.531 4.831-17.833-21.134-39.63-36.231-25.117-17.396-54.821-24.758-89.167-21.134-34.346 3.623-38.969 30.796-38.969 30.796s-6.605-25.965-55.481-30.796c-48.877-4.831-59.444 39.25-66.05 41.665-6.605 2.416-33.025-6.039-46.235-31.4-13.21-25.362-55.481-50.723-88.506-59.39-33.025-8.667-76.617 8.667-91.148 36.444s10.568 70.046-3.963 65.215c-10.567-3.513-21.154-20.44-40.863-22.442v171.622c82.257 4.233 175.155 7.534 200.703 4.197 46.235-6.038 413.469 0 413.469 0l309.111 1.368c.001 0 15.852-2.576.001-30.353z"/></g><g id="Layer_2"><path fill="#FFE8B0" d="M2038.953 1369.343l418.513-338.375 211.899 200.798 35.607-36.365L2850 1279.19v199.568h-656.022z"/><path fill="#E9EEFF" d="M1708.819 1012.777c1.586-2.124-301.525-203.422-301.525-203.422l-138.542 101.711 260.524 368.212 179.543-266.501z"/><path fill="#FFDE8C" d="M1459.966 1146.822l362.705-333.996 306.682 363.077 37.746-13.965 169.854 172.229 122.673-88.442 245.346 274.995H1365.007z"/><path fill="#FFAF54" d="M2129.353 1175.903l67.458 103.376-29.712-117.341zM2336.953 1334.167l122.673-88.442v115.727l-24.839 27.354 50.605 73.279-15.803.747zM1738.606 1125.787l108.782-153.713s-25.261-153.119-24.717-159.247l-362.705 333.995-94.959 373.898h380.196l42.862-241.441-49.459-153.492z"/><path fill="#FFE8B0" d="M516.307 925.466L175.543 764.052 0 925.466v526.78l177.493-31.075L569.369 951.5z"/><path fill="#FFDE8C" d="M1129.319 408.451l1017.39 1026.384-1177.466-1.324-232.597-214.762z"/><path fill="#FFAF54" d="M1129.319 408.451l-780.563 701.212-42.192-34.909L0 1336.738v137.684l1009.774-35.284-158.222-148.356 87.9-88.494-31.644-49.452 101.966-72.877-98.45-127.534 193.353-233.574zM2066.46 1419.215l-644.651-374.898 322.326 374.898z"/><path fill="#FFAF54" d="M1464.785 1434.835c0-7.81-190.325-161.414-190.325-161.414l-30.698 13.017-122.79-119.759-270.139 268.156h613.952z"/><linearGradient id="SVGID_2_" gradientUnits="userSpaceOnUse" x1="1242.244" y1="1338.327" x2="1260.837" y2="1686.947"><stop offset="0" stop-color="#ffdf9e"/><stop offset="1" stop-color="#de9a24"/></linearGradient><path fill="url(#SVGID_2_)" d="M0 1452.443s588.076-108.47 770.681-129.914c182.606-21.444 473.283-24.384 804.954 0 331.671 24.384 863.094 176.475 937.627 225.244C2587.795 1596.541.024 1696.392.024 1696.392L0 1452.443z"/><linearGradient id="SVGID_3_" gradientUnits="userSpaceOnUse" x1="1423.092" y1="1555.427" x2="1429.037" y2="1817.01"><stop offset="0" stop-color="#ffdf9e"/><stop offset="1" stop-color="#de9a24"/></linearGradient><path fill="url(#SVGID_3_)" d="M582.74 1577.689c191.838-57.276 591.283-119.759 699.028-114.552 107.745 5.207 383.677 80.707 546.608 93.724 18.281 1.46 39.325 1.462 62.388.323 49.073-2.423 107.358-10.05 168.044-19.993 164.997-27.035 347.669-71.177 410.78-74.359 97.233-4.903 380.411 15.926 380.411 15.926v321.221l-2206.824.306L0 1799.979V1619.37s390.901 15.595 582.74-41.681z"/><path fill="#3CA35D" d="M2381.209 1523.656l-6.024 10.668s-3.399-4.845-2.217-6.42c1.183-1.573 8.241-4.248 8.241-4.248zM2306.781 1543.193l6.136 10.604s-5.899.471-6.657-1.348c-.755-1.817.521-9.256.521-9.256zM2334.294 1538.184l10.492-6.133s-2.331 7.315-4.69 9.417c-2.36 2.102-10.981-.26-5.802-3.284zM2182.187 1474.094l-7.66-9.786s-1.664 3.356 1.41 7.678c2.907 4.087 4.567 3.472 6.25 2.108zM2188.942 1505.344s4.682 8.645 5.718 9.588c1.037.943-6.265.262-7.283-2.703-1.018-2.964 1.151-3.696 1.565-6.885z"/><path transform="rotate(-87.822 2336.392 1459.28)" fill="#3CA35D" d="M2309.882 1458.378h52.866v1.927h-52.866z"/><path fill="#3CA35D" d="M2313.476 1568.043l-1.816-.63 36.048-129.889 1.855.514-31.97 115.198c17.268-41.214 42.492-101.526 43.053-103.289l1.863.488c-.356 1.486-44.051 105.726-49.033 117.608z"/><path transform="rotate(-82.149 2351.182 1466.97)" fill="#3CA35D" d="M2337.999 1465.974h26.182v1.926h-26.182z"/><path transform="rotate(-53.195 2354.645 1489.523)" fill="#3CA35D" d="M2319.28 1488.623h70.693v1.926h-70.693z"/><path fill="#3CA35D" d="M2322.15 1546.999l-1.154-1.544c3.938-2.946 64.776-63.68 66.424-66.311l.783.49.67-.846.37.783c-.027 2.108-66.424 66.927-67.093 67.428z"/><path transform="rotate(-47.383 2357.076 1529.571)" fill="#3CA35D" d="M2303.433 1528.642h107.41v1.927h-107.41z"/><path transform="rotate(-23.24 2364.44 1539.03)" fill="#3CA35D" d="M2336.134 1538.199h57.149v1.927h-57.149z"/><path fill="#3CA35D" d="M2299.612 1568.533l-1.926.041-.878-40.241 17.622-102.419 1.899.328-17.609 102.235z"/><path fill="#3CA35D" d="M2299.056 1532.024l-1.892.364c-21.709-112.873-21.403-113.32-21.108-113.753l.796.543.177.944-.175-.947.956.025c.117 2.473 13.949 74.882 21.246 112.824z"/><path fill="#3CA35D" d="M2298.404 1524.613l-1.924-.129 3.475-52.444 4.523-51.333 1.92.168-4.523 51.314z"/><path transform="rotate(-17.254 2293.421 1444.016)" fill="#3CA35D" d="M2292.275 1417.235h1.926v53.37h-1.926z"/><path transform="rotate(-58.352 2319.514 1449.131)" fill="#3CA35D" d="M2298.231 1448.194h42.382v1.926h-42.382z"/><path transform="translate(-4.243 6.65)" fill="#3CA35D" d="M2323.358 1451.372h1.926v72.985h-1.926z"/><path transform="rotate(-5.014 2312.197 1539.981)" fill="#3CA35D" d="M2311.093 1515.781h1.926v48.236h-1.926z"/><path transform="rotate(-89.123 2268.597 1495.675)" fill="#3CA35D" d="M2192.692 1494.742h151.842v1.927h-151.842z"/><path fill="#3CA35D" d="M2281.561 1570.511l-1.924-.089c2.47-52.871 4.537-80.187 6.142-81.194l.968-.079-.757 1.773c.488.206.944-.084 1.049-.297-1.412 2.795-4.049 49.307-5.478 79.886z"/><path transform="rotate(-29.167 2251.457 1456.242)" fill="#3CA35D" d="M2250.43 1441.835h1.927v28.979h-1.927z"/><path transform="rotate(-5.469 2278.05 1510.483)" fill="#3CA35D" d="M2277.085 1469.948h1.927v81.053h-1.927z"/><path fill="#3CA35D" d="M2250.039 1581.149l-4.004-62.943 1.922-.122 2.988 46.962 10.015-56.36-7.805-89.288 1.918-.169 7.805 89.668z"/><path transform="rotate(-76.343 2243.49 1509.423)" fill="#3CA35D" d="M2205.103 1508.413h76.789v1.925h-76.789z"/><path fill="#3CA35D" d="M2236.056 1580.937l-19.559-60.349-.011-.099-9.853-91.042 1.915-.207 9.842 90.944 15.489 47.788-2.837-146.708 1.927-.037z"/><path transform="rotate(-23.015 2203.108 1463.452)" fill="#3CA35D" d="M2201.891 1436.357h1.927v54.107h-1.927z"/><path transform="rotate(-9.201 2227.27 1470.474)" fill="#3CA35D" d="M2225.929 1427.15h1.925v86.217h-1.925z"/><path fill="#3CA35D" d="M2222.799 1575.833c-11.792-26.424-31.589-70.916-31.685-72.016l1.92-.165-.96.083.937-.215c.576 1.978 22.968 52.305 31.547 71.53l-1.759.783z"/><path transform="rotate(-18.084 2205.762 1510.153)" fill="#3CA35D" d="M2205.038 1443.216h1.927v133.992h-1.927z"/><path transform="rotate(-50.258 2207.191 1554.381)" fill="#3CA35D" d="M2206.113 1539.467h1.926v29.684h-1.926z"/><path fill="#3CA35D" d="M2367.524 1476.824l10.492-6.133s-2.331 7.315-4.69 9.417c-2.36 2.101-10.981-.261-5.802-3.284zM2269.782 1450.464l8.545-4.996s-1.898 5.958-3.82 7.669c-1.922 1.711-8.943-.212-4.725-2.673zM2284.708 1511.991l5.822-8.005s.652 6.218-.422 8.556c-1.075 2.339-8.278 3.395-5.4-.551zM2246.176 1448.734l-7.661-9.786s-1.663 3.356 1.411 7.678c2.907 4.086 4.567 3.472 6.25 2.108zM2225.894 1480.217l-7.661-9.786s-1.663 3.356 1.411 7.678c2.908 4.088 4.567 3.472 6.25 2.108zM2243.413 1483.067l2.046 14.078s-7.14-2.035-7.335-6.15c-.196-4.113 5.289-7.928 5.289-7.928zM2320.396 1462.262s1.978 12.724 2.842 14.341c.865 1.618-7.844-2.429-7.797-6.534.046-4.105 3.042-4.056 4.955-7.807zM2318.303 1492.642s4.166 12.185 5.299 13.628c1.134 1.442-8.148-1.026-8.818-5.076-.669-4.05 2.29-4.524 3.519-8.552zM2383.403 1505.83s-7.405 5.091-8.64 5.428c-1.235.335 4.992 2.815 7.05.827 2.062-1.989.601-3.489 1.59-6.255zM2297.688 1465.658s.945 8.936 1.492 10.094c.548 1.156-5.384-1.962-5.211-4.82.171-2.861 2.26-2.725 3.719-5.274zM2290.062 1529.653s-4.117 7.989-5.046 8.869c-.93.88 5.729.121 6.603-2.605.876-2.728-1.12-3.357-1.557-6.264zM2356.984 1441.984s-7.405 5.091-8.64 5.429c-1.235.335 4.991 2.815 7.05.827 2.063-1.99.601-3.49 1.59-6.256zM2296.124 1426.255s-1.075 8.923-1.639 10.072c-.564 1.148 5.412-1.886 5.282-4.744-.131-2.862-2.221-2.756-3.643-5.328zM2255.642 1508.137s3.18 9.303 4.046 10.405c.865 1.1-6.222-.783-6.733-3.876-.512-3.091 1.749-3.453 2.687-6.529zM2209.697 1488.961s3.365 6.214 4.111 6.892c.745.678-4.503.188-5.234-1.942-.732-2.131.826-2.657 1.123-4.95zM2203.179 1438.629s3.487 6.438 4.259 7.142c.773.702-4.666.195-5.426-2.014-.757-2.21.857-2.754 1.167-5.128zM2280.345 1554.01s-4.226-7.688-3.89-11.983c.335-4.297-5.748 4.735-3.005 9.013 2.744 4.281 5.719 3.074 6.895 2.97zM2233.899 1530.364s-5.467-6.862-5.863-11.151c-.398-4.292-4.864 5.639-1.437 9.391 3.43 3.755 6.159 2.062 7.3 1.76z"/><path transform="rotate(-27.324 2192.654 1490.917)" fill="#3CA35D" d="M2191.534 1448.346h1.926v84.983h-1.926z"/><path transform="rotate(-29.692 2183.407 1509.146)" fill="#3CA35D" d="M2182.396 1456.253h1.926v105.54h-1.926z"/><path transform="rotate(-20.695 2363.014 1556.17)" fill="#3CA35D" d="M2335.983 1555.28h54.342v1.927h-54.342z"/><g><path fill="#3CA35D" d="M953.347 1500.484l-4.912 8.698s-2.772-3.95-1.808-5.235c.965-1.282 6.72-3.463 6.72-3.463zM892.658 1516.414l5.004 8.646s-4.81.384-5.428-1.099c-.616-1.481.424-7.547.424-7.547zM915.092 1512.33l8.555-5s-1.901 5.964-3.824 7.678c-1.924 1.713-8.954-.213-4.731-2.678zM791.064 1460.071l-6.247-7.98s-1.356 2.736 1.15 6.261c2.372 3.332 3.725 2.831 5.097 1.719zM796.573 1485.552s3.818 7.049 4.663 7.818c.845.768-5.108.214-5.938-2.204-.832-2.417.937-3.014 1.275-5.614z"/><path transform="rotate(-87.822 916.699 1448.003)" fill="#3CA35D" d="M895.187 1447.256h43.107v1.572h-43.107z"/><path fill="#3CA35D" d="M898.118 1536.677l-1.481-.514 29.393-105.911 1.513.42-26.069 93.932c14.08-33.605 34.648-82.784 35.105-84.222l1.519.398c-.289 1.211-35.919 86.209-39.98 95.897z"/><path transform="rotate(-82.154 928.861 1454.304)" fill="#3CA35D" d="M918.113 1453.45h21.349v1.57h-21.349z"/><path transform="rotate(-53.2 931.722 1472.77)" fill="#3CA35D" d="M902.85 1471.918h57.643v1.57H902.85z"/><path fill="#3CA35D" d="M905.19 1519.518l-.941-1.259c3.211-2.402 52.818-51.925 54.162-54.07l.639.4.547-.69.302.638c-.024 1.718-54.163 54.572-54.709 54.981z"/><path transform="rotate(-47.375 933.672 1505.3)" fill="#3CA35D" d="M889.928 1504.549h87.582v1.571h-87.582z"/><path transform="rotate(-23.234 939.986 1513.202)" fill="#3CA35D" d="M916.593 1512.342h46.599v1.572h-46.599z"/><path fill="#3CA35D" d="M886.812 1537.077l-1.57.033-.716-32.812 14.37-83.513 1.547.268-14.358 83.362z"/><path fill="#3CA35D" d="M886.359 1507.307l-1.542.297c-17.702-92.037-17.452-92.401-17.212-92.754l.649.443.144.77-.142-.772.779.021c.095 2.015 11.374 61.057 17.324 91.995z"/><path fill="#3CA35D" d="M885.827 1501.264l-1.568-.105 2.833-42.763 3.689-41.857 1.564.137-3.687 41.842z"/><path transform="rotate(-17.254 881.673 1435.55)" fill="#3CA35D" d="M880.83 1413.708h1.571v43.518h-1.571z"/><path transform="rotate(-58.365 902.978 1439.762)" fill="#3CA35D" d="M885.686 1438.952h34.558v1.571h-34.558z"/><path transform="translate(-4.418 2.732)" fill="#3CA35D" d="M906.175 1441.544h1.57v59.511h-1.57z"/><path transform="rotate(-5.014 896.927 1513.674)" fill="#3CA35D" d="M896.174 1494.063h1.571v39.332h-1.571z"/><path transform="rotate(-89.123 861.583 1477.684)" fill="#3CA35D" d="M799.63 1476.907h123.812v1.571H799.63z"/><path fill="#3CA35D" d="M872.093 1538.689l-1.569-.073c2.015-43.11 3.699-65.384 5.008-66.205l.789-.065-.617 1.446c.398.168.77-.068.855-.243-1.149 2.281-3.3 40.206-4.466 65.14z"/><path transform="rotate(-29.167 847.524 1445.523)" fill="#3CA35D" d="M846.709 1433.767h1.571v23.629h-1.571z"/><path transform="rotate(-5.469 869.666 1490.415)" fill="#3CA35D" d="M868.444 1456.69h1.571v66.091h-1.571z"/><path fill="#3CA35D" d="M846.391 1547.364l-3.266-51.324 1.568-.1 2.437 38.293 8.165-45.956-6.364-72.805 1.565-.138 6.364 73.115z"/><path transform="rotate(-76.35 841.02 1488.773)" fill="#3CA35D" d="M809.75 1488.054h62.614v1.57H809.75z"/><path fill="#3CA35D" d="M834.989 1547.191l-15.949-49.209-.009-.08-8.034-74.236 1.562-.169 8.026 74.156 12.629 38.966-2.314-119.626 1.571-.03z"/><path transform="rotate(-23.015 808.022 1451.429)" fill="#3CA35D" d="M807.13 1429.3h1.571v44.119h-1.571z"/><path transform="rotate(-9.196 827.554 1457.01)" fill="#3CA35D" d="M826.732 1421.793h1.57v70.301h-1.57z"/><path fill="#3CA35D" d="M824.179 1543.028c-9.615-21.546-25.758-57.825-25.836-58.722l1.565-.135-.783.067.764-.175c.47 1.613 18.728 42.65 25.723 58.325l-1.433.64z"/><path transform="rotate(-18.084 810.35 1489.4)" fill="#3CA35D" d="M809.697 1434.893h1.571v109.257h-1.571z"/><path transform="rotate(-50.258 811.407 1525.555)" fill="#3CA35D" d="M810.574 1513.376h1.571v24.204h-1.571z"/><path fill="#3CA35D" d="M942.188 1462.297l8.555-5s-1.901 5.964-3.825 7.678c-1.924 1.713-8.953-.213-4.73-2.678zM862.489 1440.802l6.967-4.073s-1.547 4.858-3.115 6.252c-1.566 1.397-7.291-.171-3.852-2.179zM874.66 1490.972l4.747-6.527s.531 5.07-.344 6.977c-.876 1.907-6.749 2.768-4.403-.45zM843.241 1439.392l-6.246-7.979s-1.356 2.737 1.15 6.26c2.371 3.332 3.724 2.831 5.096 1.719zM826.703 1465.064l-6.247-7.979s-1.356 2.737 1.151 6.261c2.37 3.332 3.724 2.83 5.096 1.718zM840.988 1467.387l1.668 11.479s-5.822-1.659-5.981-5.014c-.16-3.354 4.313-6.465 4.313-6.465zM903.759 1450.423s1.613 10.375 2.317 11.694c.706 1.319-6.396-1.981-6.358-5.328.039-3.347 2.482-3.308 4.041-6.366zM902.053 1475.195s3.397 9.936 4.321 11.112c.924 1.176-6.644-.836-7.19-4.139-.546-3.302 1.868-3.689 2.869-6.973zM955.135 1485.948s-6.038 4.151-7.046 4.426c-1.006.273 4.07 2.296 5.749.674 1.682-1.621.491-2.844 1.297-5.1zM885.243 1453.192s.771 7.286 1.217 8.23c.446.943-4.39-1.6-4.249-3.931.139-2.331 1.842-2.22 3.032-4.299zM879.026 1505.374s-3.357 6.514-4.115 7.232 4.672.099 5.385-2.124c.713-2.225-.915-2.738-1.27-5.108zM933.594 1433.888s-6.038 4.152-7.045 4.427c-1.007.273 4.07 2.295 5.749.674 1.681-1.622.49-2.845 1.296-5.101zM883.969 1421.063s-.877 7.275-1.336 8.213c-.46.936 4.413-1.538 4.307-3.868-.108-2.334-1.812-2.248-2.971-4.345zM850.959 1487.83s2.593 7.585 3.299 8.484c.706.897-5.073-.639-5.49-3.16-.417-2.521 1.426-2.817 2.191-5.324zM813.496 1472.193s2.744 5.067 3.352 5.62c.608.553-3.671.153-4.268-1.583-.597-1.738.673-2.167.916-4.037zM808.181 1431.153s2.844 5.25 3.473 5.824c.63.572-3.805.159-4.424-1.643-.618-1.802.698-2.245.951-4.181zM871.102 1525.234s-3.446-6.269-3.171-9.771c.273-3.503-4.687 3.86-2.45 7.35 2.236 3.49 4.662 2.506 5.621 2.421zM833.23 1505.954s-4.458-5.595-4.781-9.093c-.325-3.5-3.966 4.598-1.171 7.658 2.797 3.062 5.021 1.68 5.952 1.435z"/><path transform="rotate(-27.324 799.526 1473.803)" fill="#3CA35D" d="M798.686 1439.075h1.57v69.296h-1.57z"/><path transform="rotate(-29.692 792.018 1488.643)" fill="#3CA35D" d="M791.234 1445.524h1.57v86.057h-1.57z"/><path transform="rotate(-20.691 938.537 1527.029)" fill="#3CA35D" d="M916.469 1526.27h44.311v1.572h-44.311z"/></g><g><path fill="#3CA35D" d="M1407.68 1364.836l-2.866 5.074s-1.617-2.304-1.055-3.054c.563-.747 3.921-2.02 3.921-2.02zM1372.275 1374.13l2.919 5.044s-2.807.224-3.167-.641c-.359-.865.248-4.403.248-4.403zM1385.363 1371.747l4.991-2.917s-1.109 3.479-2.231 4.479c-1.123 1-5.224-.124-2.76-1.562zM1313.007 1341.26l-3.644-4.655s-.791 1.597.671 3.652c1.383 1.944 2.173 1.652 2.973 1.003zM1316.22 1356.125s2.227 4.112 2.72 4.561c.494.448-2.98.125-3.464-1.286-.484-1.41.547-1.758.744-3.275z"/><path transform="rotate(-87.811 1386.3 1334.202)" fill="#3CA35D" d="M1373.75 1333.784h25.148v.917h-25.148z"/><path fill="#3CA35D" d="M1375.46 1385.951l-.864-.3 17.148-61.787.883.245-15.208 54.799c8.214-19.605 20.213-48.295 20.48-49.134l.886.232c-.17.706-20.955 50.292-23.325 55.945z"/><path transform="rotate(-82.154 1393.445 1337.91)" fill="#3CA35D" d="M1387.125 1337.397h12.455v.916h-12.455z"/><path transform="rotate(-53.209 1394.981 1348.656)" fill="#3CA35D" d="M1378.221 1348.171h33.628v.916h-33.628z"/><path fill="#3CA35D" d="M1379.586 1375.94l-.549-.734c1.873-1.401 30.813-30.292 31.598-31.544l.372.234.319-.403.176.372c-.013 1.003-31.597 31.837-31.916 32.075z"/><path transform="rotate(-47.383 1396.212 1367.642)" fill="#3CA35D" d="M1370.683 1367.208h51.094v.916h-51.094z"/><path transform="rotate(-23.234 1399.796 1372.168)" fill="#3CA35D" d="M1386.238 1371.754h27.185v.917h-27.185z"/><path fill="#3CA35D" d="M1368.865 1386.184l-.916.019-.418-19.142 8.383-48.72.903.156-8.377 48.632z"/><path fill="#3CA35D" d="M1368.601 1368.816l-.9.173c-10.327-53.693-10.181-53.905-10.041-54.111l.379.258.084.449-.083-.45.455.012c.055 1.177 6.634 35.621 10.106 53.669z"/><path fill="#3CA35D" d="M1368.29 1365.291l-.915-.061 1.653-24.947 2.152-24.419.913.08-2.151 24.41z"/><path transform="rotate(-17.254 1365.96 1327.01)" fill="#3CA35D" d="M1365.375 1314.212h.916v25.387h-.916z"/><path transform="rotate(-58.372 1378.2 1329.326)" fill="#3CA35D" d="M1368.208 1328.939h20.161v.916h-20.161z"/><path transform="translate(-4.045 4.156)" fill="#3CA35D" d="M1380.161 1330.451h.916v34.718h-.916z"/><path transform="rotate(-5.025 1374.182 1372.008)" fill="#3CA35D" d="M1374.326 1361.09h.916v22.946h-.916z"/><path transform="rotate(-89.118 1354.061 1351.515)" fill="#3CA35D" d="M1318.004 1351.082h72.229v.917h-72.229z"/><path fill="#3CA35D" d="M1360.278 1387.125l-.915-.043c1.175-25.15 2.158-38.144 2.921-38.623l.46-.037-.36.843c.232.098.449-.04.499-.142-.67 1.33-1.925 23.455-2.605 38.002z"/><path transform="rotate(-29.167 1345.944 1332.736)" fill="#3CA35D" d="M1345.469 1325.915h.917v13.785h-.917z"/><path transform="rotate(-5.463 1358.696 1358.64)" fill="#3CA35D" d="M1358.149 1339.288h.917v38.556h-.917z"/><path fill="#3CA35D" d="M1345.284 1392.185l-1.905-29.942.914-.057 1.422 22.339 4.763-26.81-3.712-42.474.913-.08 3.712 42.654z"/><path transform="rotate(-76.338 1342.227 1358.057)" fill="#3CA35D" d="M1323.908 1357.585h36.528v.916h-36.528z"/><path fill="#3CA35D" d="M1338.632 1392.084l-9.304-28.707-.005-.048-4.687-43.307.911-.099 4.682 43.261 7.368 22.732-1.35-69.787.916-.018z"/><path transform="rotate(-23.015 1322.978 1336.222)" fill="#3CA35D" d="M1322.38 1323.309h.917v25.738h-.917z"/><path transform="rotate(-9.189 1334.567 1339.68)" fill="#3CA35D" d="M1333.815 1318.929h.916v41.012h-.916z"/><path fill="#3CA35D" d="M1332.326 1389.656c-5.609-12.57-15.026-33.734-15.072-34.257l.913-.079-.457.039.446-.102c.274.941 10.926 24.881 15.006 34.026l-.836.373z"/><path transform="rotate(-18.084 1324.168 1358.36)" fill="#3CA35D" d="M1323.877 1326.572h.917v63.739h-.917z"/><path transform="rotate(-50.258 1324.902 1379.477)" fill="#3CA35D" d="M1324.389 1372.357h.916v14.12h-.916z"/><path fill="#3CA35D" d="M1401.17 1342.558l4.991-2.917s-1.109 3.479-2.231 4.479c-1.123 1-5.224-.124-2.76-1.562zM1354.675 1330.019l4.064-2.376s-.903 2.834-1.817 3.648c-.913.814-4.253-.101-2.247-1.272zM1361.775 1359.287l2.77-3.808s.31 2.958-.201 4.07c-.511 1.113-3.938 1.615-2.569-.262zM1343.446 1329.196l-3.644-4.655s-.791 1.597.671 3.652c1.383 1.944 2.172 1.652 2.973 1.003zM1333.798 1344.173l-3.644-4.655s-.791 1.597.671 3.652c1.383 1.944 2.173 1.652 2.973 1.003zM1342.132 1345.528l.973 6.697s-3.396-.968-3.49-2.925c-.092-1.957 2.517-3.772 2.517-3.772zM1378.751 1335.631s.941 6.053 1.352 6.822c.411.77-3.731-1.155-3.709-3.108.023-1.952 1.448-1.929 2.357-3.714zM1377.756 1350.083s1.982 5.796 2.521 6.483c.539.686-3.876-.488-4.194-2.414-.319-1.927 1.089-2.153 1.673-4.069zM1408.724 1356.356s-3.523 2.422-4.11 2.582c-.587.16 2.374 1.339 3.354.394.98-.947.285-1.66.756-2.976zM1367.95 1337.247s.449 4.251.71 4.802c.26.55-2.561-.933-2.479-2.293.081-1.361 1.074-1.296 1.769-2.509zM1364.322 1367.689s-1.959 3.8-2.4 4.219c-.442.419 2.726.058 3.141-1.239.417-1.298-.533-1.597-.741-2.98zM1396.157 1325.985s-3.523 2.422-4.11 2.582c-.587.159 2.374 1.339 3.354.393.98-.945.285-1.659.756-2.975zM1367.206 1318.504s-.512 4.244-.78 4.791c-.268.546 2.575-.897 2.513-2.257-.063-1.362-1.057-1.311-1.733-2.534zM1347.949 1357.454s1.513 4.425 1.925 4.949c.412.524-2.959-.372-3.203-1.844-.244-1.47.832-1.642 1.278-3.105zM1326.094 1348.332s1.601 2.956 1.955 3.278c.355.323-2.142.089-2.49-.923-.348-1.014.393-1.264.535-2.355zM1322.993 1324.39s1.659 3.062 2.026 3.397c.368.334-2.22.093-2.581-.958-.361-1.051.407-1.31.555-2.439zM1359.7 1379.275s-2.01-3.657-1.851-5.7c.16-2.044-2.734 2.252-1.429 4.287 1.305 2.037 2.721 1.463 3.28 1.413zM1337.606 1368.027s-2.601-3.264-2.789-5.304c-.19-2.042-2.313 2.682-.683 4.467 1.631 1.786 2.929.98 3.472.837z"/><path transform="rotate(-27.324 1318.012 1349.304)" fill="#3CA35D" d="M1317.453 1329.012h.916v40.426h-.916z"/><path transform="rotate(-29.692 1313.571 1357.962)" fill="#3CA35D" d="M1313.106 1332.773h.916v50.204h-.916z"/><path transform="rotate(-20.675 1398.915 1380.128)" fill="#3CA35D" d="M1386.166 1379.879h25.85v.917h-25.85z"/></g><g><path fill="#3CA35D" d="M270.291 1615.544l-4.912 8.698s-2.772-3.95-1.808-5.235c.965-1.282 6.72-3.463 6.72-3.463zM209.602 1631.474l5.003 8.647s-4.81.384-5.428-1.1c-.615-1.481.425-7.547.425-7.547zM232.036 1627.391l8.555-5s-1.901 5.964-3.824 7.678c-1.924 1.713-8.954-.213-4.731-2.678zM108.008 1575.132l-6.246-7.98s-1.356 2.737 1.15 6.261c2.371 3.332 3.724 2.831 5.096 1.719zM113.517 1600.612s3.818 7.049 4.663 7.818c.845.768-5.108.214-5.938-2.204-.832-2.416.937-3.013 1.275-5.614z"/><path transform="rotate(-87.822 233.672 1563.061)" fill="#3CA35D" d="M212.131 1562.317h43.107v1.572h-43.107z"/><path fill="#3CA35D" d="M215.062 1651.738l-1.481-.514 29.393-105.911 1.513.419-26.069 93.932c14.08-33.605 34.648-82.784 35.105-84.222l1.519.398c-.289 1.211-35.919 86.209-39.98 95.898z"/><path transform="rotate(-82.154 245.764 1569.377)" fill="#3CA35D" d="M235.057 1568.51h21.349v1.57h-21.349z"/><path transform="rotate(-53.2 248.607 1587.8)" fill="#3CA35D" d="M219.794 1586.979h57.643v1.57h-57.643z"/><path fill="#3CA35D" d="M222.134 1634.578l-.941-1.259c3.211-2.402 52.818-51.925 54.162-54.07l.639.4.547-.69.302.638c-.024 1.719-54.164 54.573-54.709 54.981z"/><path transform="rotate(-47.383 250.692 1620.416)" fill="#3CA35D" d="M206.872 1619.61h87.582v1.571h-87.582z"/><path transform="rotate(-23.229 256.785 1628.085)" fill="#3CA35D" d="M233.537 1627.403h46.6v1.572h-46.6z"/><path fill="#3CA35D" d="M203.756 1652.137l-1.57.034-.716-32.813 14.369-83.513 1.548.268-14.358 83.363z"/><path fill="#3CA35D" d="M203.303 1622.368l-1.542.297c-17.702-92.037-17.452-92.401-17.212-92.754l.649.443.144.77-.142-.772.779.021c.095 2.015 11.374 61.056 17.324 91.995z"/><path fill="#3CA35D" d="M202.771 1616.324l-1.568-.105 2.833-42.762 3.689-41.858 1.564.138-3.687 41.841z"/><path transform="rotate(-17.254 198.572 1550.607)" fill="#3CA35D" d="M197.774 1528.768h1.571v43.518h-1.571z"/><path transform="rotate(-58.352 219.967 1554.845)" fill="#3CA35D" d="M202.63 1554.013h34.558v1.571H202.63z"/><path transform="translate(-4.37 .623)" fill="#3CA35D" d="M223.119 1556.604h1.57v59.512h-1.57z"/><path transform="rotate(-5.014 213.895 1628.73)" fill="#3CA35D" d="M213.118 1609.124h1.571v39.332h-1.571z"/><path transform="rotate(-89.123 178.52 1592.762)" fill="#3CA35D" d="M116.574 1591.968h123.812v1.571H116.574z"/><path fill="#3CA35D" d="M189.037 1653.75l-1.569-.073c2.014-43.111 3.699-65.384 5.008-66.205l.789-.065-.617 1.446c.398.168.77-.068.855-.243-1.149 2.28-3.3 40.206-4.466 65.14z"/><path transform="rotate(-29.167 164.484 1560.598)" fill="#3CA35D" d="M163.653 1548.827h1.571v23.629h-1.571z"/><path transform="rotate(-5.469 186.282 1605.476)" fill="#3CA35D" d="M185.388 1571.751h1.571v66.091h-1.571z"/><path fill="#3CA35D" d="M163.335 1662.424l-3.265-51.324 1.567-.099 2.437 38.293 8.165-45.956-6.364-72.806 1.565-.137 6.364 73.114z"/><path transform="rotate(-76.35 157.995 1603.829)" fill="#3CA35D" d="M126.694 1603.115h62.614v1.57h-62.614z"/><path fill="#3CA35D" d="M151.933 1662.251l-15.949-49.208-.008-.081-8.034-74.236 1.561-.168 8.026 74.155 12.629 38.966-2.314-119.625 1.571-.03z"/><path transform="rotate(-23.015 124.933 1566.552)" fill="#3CA35D" d="M124.074 1544.361h1.571v44.119h-1.571z"/><path transform="rotate(-9.196 144.458 1572.028)" fill="#3CA35D" d="M143.676 1536.853h1.57v70.301h-1.57z"/><path fill="#3CA35D" d="M141.123 1658.089c-9.615-21.546-25.758-57.825-25.836-58.722l1.565-.134-.783.067.764-.175c.469 1.612 18.728 42.649 25.723 58.325l-1.433.639z"/><path transform="rotate(-18.084 127.359 1604.425)" fill="#3CA35D" d="M126.641 1549.953h1.571v109.257h-1.571z"/><path transform="rotate(-50.258 128.316 1640.623)" fill="#3CA35D" d="M127.518 1628.437h1.571v24.204h-1.571z"/><path fill="#3CA35D" d="M259.132 1577.357l8.555-5s-1.901 5.964-3.825 7.678c-1.923 1.714-8.953-.213-4.73-2.678zM179.433 1555.863l6.967-4.074s-1.547 4.859-3.114 6.253c-1.567 1.396-7.292-.172-3.853-2.179zM191.604 1606.033l4.747-6.527s.531 5.07-.344 6.977c-.876 1.906-6.749 2.767-4.403-.45zM160.185 1554.453l-6.247-7.98s-1.356 2.737 1.151 6.26c2.371 3.333 3.724 2.832 5.096 1.72zM143.647 1580.125l-6.246-7.98s-1.356 2.737 1.15 6.261c2.37 3.332 3.724 2.831 5.096 1.719zM157.932 1582.448l1.668 11.479s-5.822-1.659-5.981-5.014c-.16-3.354 4.313-6.465 4.313-6.465zM220.703 1565.484s1.613 10.375 2.317 11.694c.706 1.319-6.396-1.981-6.358-5.328.039-3.348 2.482-3.308 4.041-6.366zM218.997 1590.256s3.397 9.936 4.321 11.112c.925 1.176-6.644-.836-7.19-4.138-.546-3.303 1.868-3.69 2.869-6.974zM272.079 1601.009s-6.038 4.151-7.045 4.426c-1.007.273 4.07 2.296 5.749.674 1.681-1.622.49-2.845 1.296-5.1zM202.187 1568.252s.771 7.286 1.217 8.23c.447.943-4.39-1.6-4.249-3.93.139-2.332 1.842-2.221 3.032-4.3zM195.97 1620.434s-3.357 6.514-4.115 7.232 4.672.099 5.385-2.124c.714-2.225-.915-2.738-1.27-5.108zM250.538 1548.949s-6.038 4.151-7.045 4.426c-1.007.273 4.07 2.295 5.749.674 1.681-1.622.49-2.844 1.296-5.1zM200.913 1536.124s-.877 7.275-1.336 8.213c-.46.936 4.413-1.538 4.307-3.868-.108-2.335-1.812-2.249-2.971-4.345zM167.903 1602.891s2.594 7.586 3.3 8.484c.705.897-5.073-.639-5.49-3.16-.418-2.522 1.425-2.817 2.19-5.324zM130.44 1587.254s2.744 5.067 3.352 5.62c.608.553-3.671.153-4.268-1.583-.597-1.739.674-2.167.916-4.037zM125.125 1546.214s2.844 5.249 3.473 5.823c.63.572-3.805.159-4.424-1.642-.618-1.802.698-2.246.951-4.181zM188.046 1640.295s-3.446-6.269-3.172-9.771c.273-3.503-4.687 3.86-2.45 7.35 2.237 3.49 4.663 2.506 5.622 2.421zM150.174 1621.015s-4.458-5.595-4.781-9.093c-.325-3.5-3.966 4.598-1.171 7.658 2.797 3.061 5.022 1.68 5.952 1.435z"/><path transform="rotate(-27.324 116.434 1588.883)" fill="#3CA35D" d="M115.63 1554.136h1.57v69.295h-1.57z"/><path transform="rotate(-29.692 108.924 1603.684)" fill="#3CA35D" d="M108.178 1560.584h1.57v86.057h-1.57z"/><path transform="rotate(-20.675 255.586 1641.976)" fill="#3CA35D" d="M233.413 1641.331h44.311v1.571h-44.311z"/></g><g><path fill="#3CA35D" d="M1640.871 1641.428c-19.784 17.949-21.362 36.81-15.654 53.342h2.806c-9.114-31.868 12.848-53.342 12.848-53.342z"/><path fill="#3CA35D" d="M1638.473 1655.868c-6.478 13.685-7.78 27.794-6.344 40.98h1.677c-2.33-24.84 4.667-40.98 4.667-40.98zM1607.026 1662.863c-.257 9.171 1.725 18.259 5.082 26.991h1.669c-6.662-16.442-6.751-26.991-6.751-26.991z"/></g><g><path fill="#3CA35D" d="M567.085 1601.892c-19.784 17.949-21.362 36.81-15.654 53.342h2.806c-9.113-31.868 12.848-53.342 12.848-53.342z"/><path fill="#3CA35D" d="M564.688 1616.332c-6.478 13.685-7.78 27.794-6.344 40.98h1.677c-2.33-24.84 4.667-40.98 4.667-40.98zM533.241 1623.327c-.257 9.171 1.725 18.259 5.082 26.991h1.669c-6.662-16.442-6.751-26.991-6.751-26.991z"/></g><g><path fill="#3CA35D" d="M255.355 1698.23c-19.784 17.949-21.362 36.81-15.654 53.342h2.806c-9.113-31.867 12.848-53.342 12.848-53.342z"/><path fill="#3CA35D" d="M252.958 1712.671c-6.478 13.685-7.78 27.794-6.344 40.98h1.677c-2.33-24.84 4.667-40.98 4.667-40.98zM221.511 1719.665c-.257 9.171 1.725 18.259 5.082 26.991h1.669c-6.662-16.441-6.751-26.991-6.751-26.991z"/></g><g><path fill="#3CA35D" d="M2756.65 1653.341c-19.784 17.949-21.362 36.81-15.655 53.342h2.806c-9.113-31.867 12.849-53.342 12.849-53.342z"/><path fill="#3CA35D" d="M2754.252 1667.782c-6.478 13.685-7.78 27.794-6.344 40.98h1.677c-2.33-24.841 4.667-40.98 4.667-40.98zM2722.806 1674.776c-.257 9.171 1.725 18.259 5.082 26.991h1.669c-6.663-16.441-6.751-26.991-6.751-26.991z"/></g><g><path fill="#3CA35D" d="M1930.957 1390.948c-14.629 13.272-15.796 27.219-11.576 39.443h2.075c-6.738-23.564 9.501-39.443 9.501-39.443z"/><path fill="#3CA35D" d="M1929.184 1401.626c-4.79 10.119-5.753 20.552-4.691 30.303h1.24c-1.723-18.369 3.451-30.303 3.451-30.303zM1905.931 1406.798c-.19 6.781 1.276 13.501 3.758 19.958h1.234c-4.926-12.157-4.992-19.958-4.992-19.958z"/></g><g><path fill="#3CA35D" d="M1231.066 1436.806c-14.629 13.272-15.796 27.219-11.576 39.443h2.075c-6.738-23.564 9.501-39.443 9.501-39.443z"/><path fill="#3CA35D" d="M1229.293 1447.484c-4.79 10.119-5.753 20.552-4.691 30.302h1.24c-1.723-18.368 3.451-30.302 3.451-30.302zM1206.04 1452.656c-.19 6.781 1.276 13.502 3.758 19.958h1.234c-4.927-12.157-4.992-19.958-4.992-19.958z"/></g><g><path fill="#3CA35D" d="M1017.051 1623.01c-14.629 13.272-15.796 27.219-11.575 39.443h2.075c-6.739-23.564 9.5-39.443 9.5-39.443z"/><path fill="#3CA35D" d="M1015.278 1633.687c-4.79 10.119-5.753 20.552-4.691 30.303h1.24c-1.723-18.368 3.451-30.303 3.451-30.303zM992.026 1638.86c-.19 6.781 1.275 13.501 3.757 19.958h1.234c-4.926-12.158-4.991-19.958-4.991-19.958z"/></g><g><path fill="#BDB945" d="M412.009 1305.326l-15.753 42.017 7.876 8.17H393.63l-9.189 24.51 6.564 15.756h-10.502l-7.22 18.674 11.815 14.006-15.096-4.085-7.876 24.51 18.755 15.694c20.36-28.757 38.722-58.66 58.683-87.225l-27.555-72.027z"/><path fill="#94A33C" d="M434.326 1415.036l10.502-23.926-5.264-13.758c-19.961 28.565-38.323 58.468-58.683 87.225l14.719 12.317 43.976-3.501 25.598-25.677-17.065-46.102-13.783 13.422z"/></g><g><path fill="#BDB945" d="M1788.394 1280.72l-7.923 21.132 3.961 4.109h-5.282l-4.622 12.327 3.301 7.925h-5.282l-3.631 9.392 5.942 7.044-7.593-2.055-3.961 12.327 9.433 7.893c10.24-14.463 19.475-29.502 29.514-43.869l-13.857-36.225z"/><path fill="#94A33C" d="M1799.617 1335.898l5.282-12.033-2.647-6.919c-10.039 14.366-19.274 29.406-29.514 43.869l7.403 6.195 22.117-1.761 12.874-12.914-8.583-23.186-6.932 6.749z"/></g></g></svg>